<?xml version="1.0" standalone="no"?>
<!DOCTYPE svg PUBLIC "-//W3C//DTD SVG 20010904//EN"
 "http://www.w3.org/TR/2001/REC-SVG-20010904/DTD/svg10.dtd">
<svg version="1.0" xmlns="http://www.w3.org/2000/svg"
 width="529.000000pt" height="529.000000pt" viewBox="0 0 529.000000 529.000000"
 preserveAspectRatio="xMidYMid meet">
<metadata>
Created by potrace 1.11, written by Peter Selinger 2001-2013
</metadata>
<g transform="translate(0.000000,529.000000) scale(0.100000,-0.100000)"
fill="#000000" stroke="none">
<path d="M2405 5255 c-116 -24 -252 -72 -349 -124 -178 -95 -378 -259 -503
-415 -32 -39 -61 -73 -64 -76 -3 -3 -31 -41 -61 -85 -198 -285 -345 -616 -437
-980 -44 -177 -70 -329 -96 -555 -21 -191 -21 -557 0 -735 2 -22 7 -67 10
-100 11 -108 45 -297 80 -440 218 -902 763 -1567 1397 -1706 107 -23 295 -37
364 -27 148 22 198 33 290 64 461 153 866 586 1117 1194 104 250 192 589 226
870 6 47 14 112 18 145 4 33 8 188 8 345 0 288 -6 393 -30 555 -4 22 -9 54
-11 70 -59 402 -211 831 -412 1165 -134 222 -359 472 -542 602 -312 222 -663
303 -1005 233z"/>
</g>
</svg>
